PathFileType	4	(X/Y/Z)	Kaydara																																																																																																																									
DataRate	CameraRate	NumFrames	NumMarkers	Units	OrigDataRate	OrigDataStartFrame	OrigNumFrames																																																																																																																					
30	30	4	41	mm	30	93	154																																																																																																																					
Frame#	Time	PAIB_LFHD			PAIB_RFHD			PAIB_LBHD			PAIB_RBHD			PAIB_LFTShould			PAIB_RFTShould			PAIB_LRRShould			PAIB_RRRShould			PAIB_T10			PAIB_STRN			PAIB_TRUN			PAIB_LSHO			PAIB_LUPA			PAIB_LELB			PAIB_LFRM			PAIB_LWRA			PAIB_LWRB			PAIB_LFIN			PAIB_RSHO			PAIB_RUPA			PAIB_RELB			PAIB_RFRM			PAIB_RWRA			PAIB_RWRB			PAIB_RFIN			PAIB_LFWT			PAIB_RFWT			PAIB_LBWT			PAIB_RBWT			PAIB_LTHI			PAIB_LKNE			PAIB_LSHN			PAIB_LANK			PAIB_LHEE			PAIB_LTOE			PAIB_RTHI			PAIB_RKNE			PAIB_RSHN			PAIB_RANK			PAIB_RHEE			PAIB_RTOE		
		X1	Y1	Z1	X2	Y2	Z2	X3	Y3	Z3	X4	Y4	Z4	X5	Y5	Z5	X6	Y6	Z6	X7	Y7	Z7	X8	Y8	Z8	X9	Y9	Z9	X10	Y10	Z10	X11	Y11	Z11	X12	Y12	Z12	X13	Y13	Z13	X14	Y14	Z14	X15	Y15	Z15	X16	Y16	Z16	X17	Y17	Z17	X18	Y18	Z18	X19	Y19	Z19	X20	Y20	Z20	X21	Y21	Z21	X22	Y22	Z22	X23	Y23	Z23	X24	Y24	Z24	X25	Y25	Z25	X26	Y26	Z26	X27	Y27	Z27	X28	Y28	Z28	X29	Y29	Z29	X30	Y30	Z30	X31	Y31	Z31	X32	Y32	Z32	X33	Y33	Z33	X34	Y34	Z34	X35	Y35	Z35	X36	Y36	Z36	X37	Y37	Z37	X38	Y38	Z38	X39	Y39	Z39	X40	Y40	Z40	X41	Y41	Z41
																																																																																																																												
78	3.057	243.66047	1678.10074	-670.61104	58.63764	1677.94495	-677.87621	255.80635	1644.94598	-795.09804	53.07789	1656.9838	-791.54205	221.15408	1411.06293	-682.10587	99.22723	1405.79834	-676.96205	221.84746	1478.91571	-824.68094	69.15226	1475.22858	-808.4594	139.72023	1321.73462	-905.3376	170.96062	1341.79031	-645.4882	171.85047	1238.95126	-628.242	346.57616	1426.86111	-767.45132	406.85963	1204.21272	-804.44321	419.26388	1126.43951	-855.5265	445.75542	1009.36546	-822.74712	401.31107	890.34615	-731.92116	429.86851	875.39238	-806.25237	450.69172	836.48308	-747.24174	-31.28116	1411.42242	-723.77251	-103.4447	1239.84756	-748.77602	-130.88769	1123.44177	-743.67912	-140.08944	996.47331	-678.03551	-67.01426	923.85674	-560.68882	-137.45543	895.20554	-599.15749	-124.19143	880.6723	-527.37968	262.00014	957.46834	-685.47203	26.60455	958.31589	-680.17715	207.00436	995.72853	-903.66234	61.87538	1007.35825	-899.5005	268.54492	705.31235	-814.14063	306.43229	513.68141	-609.0564	271.26322	326.30047	-659.71848	259.20603	183.94743	-810.2282	200.89815	194.88787	-855.4026	245.9911	76.07705	-678.20114	15.70702	714.27872	-895.06241	26.12898	469.75098	-824.35394	99.22892	289.31684	-807.09251	85.43704	88.61174	-897.1032	146.99236	100.4355	-948.67157	111.24738	63.60816	-727.07619
79	3.09	244.25253	1672.83127	-629.48048	59.32546	1672.7684	-636.09173	255.91728	1639.28909	-754.05609	53.20333	1651.49323	-749.62265	222.12416	1404.91364	-640.97771	99.99701	1400.26443	-634.26014	220.8366	1472.99469	-783.85506	68.0762	1469.9823	-765.38895	136.7822	1316.5773	-863.65616	172.05711	1335.92926	-603.81081	172.67134	1233.00011	-586.76006	346.02139	1419.48563	-728.89915	405.44792	1197.34703	-769.83917	416.91994	1120.29556	-821.90598	444.20322	1002.91008	-791.84204	401.1908	881.97609	-702.88536	429.01096	868.83507	-778.0793	450.41546	828.67188	-719.78729	-30.62137	1405.93567	-679.39651	-104.92143	1235.30235	-698.8456	-133.79328	1119.5797	-689.17068	-139.80845	996.37527	-615.8004	-61.99203	932.29019	-496.53358	-132.98175	899.97604	-531.06037	-118.11265	890.98717	-458.90053	260.18024	952.32765	-642.92023	25.7901	950.86006	-639.24004	207.19107	991.89667	-860.94894	62.32014	1004.3985	-857.65968	266.14609	702.73964	-767.44423	298.19733	514.52862	-556.47041	265.14521	319.4215	-568.98506	255.70141	145.12494	-680.82672	196.07428	143.97446	-725.72395	250.40577	72.99779	-526.41399	15.34768	716.58035	-867.79427	25.32359	468.24127	-810.73524	97.90134	287.57542	-799.34372	86.62176	89.77793	-896.72958	149.25741	102.6959	-946.64116	110.45412	63.05589	-726.88095
80	3.123	245.52929	1665.88196	-587.56016	60.46502	1666.28082	-593.2769	256.56507	1631.83228	-712.00546	53.87828	1644.54575	-706.8	223.47017	1397.17712	-598.72463	101.2241	1393.10226	-590.71976	220.62214	1465.3125	-741.79253	68.07984	1463.05176	-721.7852	135.10195	1309.65393	-821.17828	173.20589	1328.50479	-561.01334	173.37877	1225.64644	-543.91926	346.21113	1410.72281	-688.98094	404.12571	1188.73405	-732.76619	414.54407	1112.24815	-785.69733	442.90375	994.71901	-758.33908	401.6597	871.93199	-671.36559	428.33523	860.1326	-746.75232	450.77633	819.24576	-689.96353	-29.22942	1398.74146	-634.42116	-105.06875	1229.19106	-648.79715	-135.30129	1114.34814	-634.98363	-138.63006	994.73869	-555.59128	-56.05681	937.16682	-435.8905	-128.64582	902.89047	-466.33602	-111.29088	898.30292	-394.19632	258.64523	943.88481	-599.25575	23.82714	941.8866	-598.88912	207.61347	986.19728	-816.34666	62.79592	999.51233	-814.99374	259.63654	695.80444	-727.46231	290.88192	506.98917	-516.04649	263.31179	315.02705	-485.84999	253.65015	119.10171	-550.23129	192.42254	106.87299	-591.21849	255.21214	83.95466	-381.65367	15.9075	716.17172	-836.86096	26.37379	465.54886	-791.65749	98.6165	283.89179	-789.49837	89.59298	91.46462	-894.97734	153.20188	106.25234	-942.9866	110.29699	62.46123	-725.78178
81	3.157	247.29843	1657.78824	-544.51382	62.41251	1658.3255	-549.74979	258.05092	1623.41812	-668.81844	55.36095	1636.21429	-663.15269	224.76238	1388.79776	-555.1757	102.63098	1385.38544	-546.51543	221.24075	1456.73355	-698.02673	68.91183	1455.46646	-677.55463	134.59066	1301.79703	-777.93793	174.30998	1320.43701	-517.11704	173.95441	1217.57401	-499.83719	347.16461	1401.69617	-646.73454	403.36506	1179.98108	-693.18581	412.51396	1104.01207	-747.1981	441.79382	986.29654	-722.33757	402.70687	861.69136	-636.97979	427.99797	851.63353	-712.9483	451.6914	809.61472	-657.46765	-27.35143	1391.46606	-589.22707	-103.91611	1222.83165	-599.24782	-135.10978	1108.77502	-582.3	-136.35978	991.82076	-498.51345	-50.50745	938.45802	-379.26407	-124.1472	903.38043	-406.30138	-104.60182	901.70532	-334.48883	257.30839	934.83337	-553.4753	22.9043	933.16841	-556.17813	208.62123	978.58749	-770.84587	63.77941	992.4501	-771.38275	254.76915	685.93719	-691.42891	282.55135	490.48553	-482.67746	259.02256	315.89001	-413.43426	251.05131	112.0384	-433.08933	189.08173	91.08969	-470.05108	253.42627	110.14832	-258.51971	18.51168	714.56718	-800.82657	27.65132	462.49138	-765.44769	99.71507	280.90263	-774.66972	91.97865	94.88371	-891.978	156.53507	112.13458	-938.13011	110.49639	61.82916	-724.58672
